<svg width="561" height="477" viewBox="0 0 561 477" fill="none" xmlns="http://www.w3.org/2000/svg">
<g clip-path="url(#clip0)">
<path d="M541.366 199.966C513.312 235.854 460.373 244.072 416.572 231.573C402.24 227.383 388.413 221.625 375.343 214.404C367.751 210.28 360.341 205.756 353.081 200.935C351.295 199.754 349.51 198.555 347.742 197.332C346.537 196.508 345.336 195.675 344.139 194.831C329.149 184.281 314.746 172.708 300.586 161.202C265.235 132.478 228.916 102.87 185.484 89.1652C176.536 86.3431 164.96 85.0229 159.426 92.605C154.626 99.1879 157.556 108.508 161.618 115.57C176.687 141.725 204.04 158.24 231.417 170.94C258.793 183.639 287.793 193.928 311.592 212.496C335.391 231.064 353.56 260.575 348.692 290.365C344.497 316.036 323.543 336.893 299.181 345.983C274.819 355.067 247.648 353.802 222.323 347.903C196.999 341.998 172.957 331.697 148.517 322.819C133.781 317.459 114.517 313.753 104.739 326.016C96.4811 336.378 101.228 352.724 111.283 361.347C121.339 369.971 134.949 372.86 147.935 375.452C188.256 383.506 228.577 391.559 268.898 399.609C281.267 402.074 293.926 404.654 304.702 411.219C315.479 417.777 324.173 429.235 323.864 441.85C323.555 454.283 314.456 465.269 303.304 470.774C292.158 476.273 279.287 477.12 266.87 476.527C220.338 474.298 86.9336 400.348 54.9373 390.895C34.3773 384.827 11.8982 375.912 3.22843 356.303C-7.56622 331.891 10.1969 302.356 34.4438 291.206C58.6848 280.051 86.7883 282.522 113.209 286.277C139.629 290.032 166.921 294.81 192.64 287.676C218.358 280.542 241.921 257.287 239.384 230.713C237.174 207.591 216.354 190.168 194.444 182.489C177.292 176.475 159.045 174.84 141.028 172.133C136.027 171.388 131.044 170.552 126.11 169.523C113.474 166.874 101.148 162.917 89.3311 157.713C76.9311 152.265 65.151 145.502 54.1927 137.541C45.4524 131.2 37.2844 124.106 29.7823 116.339C28.638 115.152 27.5058 113.938 26.3857 112.699C25.3203 111.512 24.2668 110.301 23.2377 109.065C9.8458 93.0592 -0.0469381 73.3469 2.91985 53.035C5.88013 32.7776 21.6636 15.9115 40.4558 7.80857C51.3169 3.12726 63.0318 1.03188 74.8919 0.729074C83.564 0.555703 92.2337 1.18008 100.792 2.59433C140.392 8.92894 176.681 28.175 210.954 49.0138C245.22 69.8526 278.615 92.7262 315.866 107.582C353.118 122.443 395.521 128.735 433.311 115.297C471.102 101.865 502.147 65.2137 500.301 25.1409C525.365 46.7307 546.664 73.8677 556.096 105.577C565.529 137.286 561.739 173.901 541.366 199.966Z" fill="#3F3D56"/>
<path d="M360.775 158.552C363.209 158.552 365.181 156.579 365.181 154.145C365.181 151.71 363.209 149.737 360.775 149.737C358.342 149.737 356.369 151.71 356.369 154.145C356.369 156.579 358.342 158.552 360.775 158.552Z" fill="#6C63FF"/>
<path d="M516.368 102.821C520.13 102.821 523.18 99.7701 523.18 96.0067C523.18 92.2433 520.13 89.1924 516.368 89.1924C512.605 89.1924 509.555 92.2433 509.555 96.0067C509.555 99.7701 512.605 102.821 516.368 102.821Z" fill="#FF6584"/>
<path d="M69.569 312.908C70.9591 312.908 72.086 311.781 72.086 310.39C72.086 309 70.9591 307.872 69.569 307.872C68.1789 307.872 67.052 309 67.052 310.39C67.052 311.781 68.1789 312.908 69.569 312.908Z" fill="#FF6584"/>
<path d="M141.815 165.653C141.816 167.836 141.552 170.012 141.028 172.132C136.027 171.388 131.044 170.552 126.11 169.522C113.474 166.874 101.148 162.916 89.3311 157.713C91.2314 151.576 95.2685 146.324 100.71 142.91C106.151 139.496 112.635 138.147 118.986 139.108C125.336 140.069 131.132 143.275 135.321 148.146C139.51 153.016 141.814 159.228 141.815 165.653Z" fill="#FF6584"/>
<path d="M472.777 142.791C474.199 142.791 475.352 141.638 475.352 140.216C475.352 138.794 474.199 137.641 472.777 137.641C471.356 137.641 470.203 138.794 470.203 140.216C470.203 141.638 471.356 142.791 472.777 142.791Z" fill="#F0F0F0"/>
<path d="M237.27 426.213C238.692 426.213 239.844 425.06 239.844 423.638C239.844 422.216 238.692 421.063 237.27 421.063C235.848 421.063 234.696 422.216 234.696 423.638C234.696 425.06 235.848 426.213 237.27 426.213Z" fill="#F0F0F0"/>
<path d="M274.2 461.943C275.622 461.943 276.775 460.79 276.775 459.368C276.775 457.946 275.622 456.793 274.2 456.793C272.779 456.793 271.626 457.946 271.626 459.368C271.626 460.79 272.779 461.943 274.2 461.943Z" fill="#F0F0F0"/>
<path d="M45.9577 360.202C47.3794 360.202 48.5319 359.049 48.5319 357.627C48.5319 356.205 47.3794 355.052 45.9577 355.052C44.536 355.052 43.3835 356.205 43.3835 357.627C43.3835 359.049 44.536 360.202 45.9577 360.202Z" fill="#F0F0F0"/>
<path d="M172.49 312.359C173.912 312.359 175.064 311.207 175.064 309.784C175.064 308.362 173.912 307.209 172.49 307.209C171.068 307.209 169.916 308.362 169.916 309.784C169.916 311.207 171.068 312.359 172.49 312.359Z" fill="#F0F0F0"/>
<path d="M159.776 56.7951C161.198 56.7951 162.351 55.6422 162.351 54.2201C162.351 52.7979 161.198 51.6451 159.776 51.6451C158.355 51.6451 157.202 52.7979 157.202 54.2201C157.202 55.6422 158.355 56.7951 159.776 56.7951Z" fill="#F0F0F0"/>
<path d="M315.369 258.461C316.79 258.461 317.943 257.308 317.943 255.886C317.943 254.464 316.79 253.311 315.369 253.311C313.947 253.311 312.795 254.464 312.795 255.886C312.795 257.308 313.947 258.461 315.369 258.461Z" fill="#F0F0F0"/>
<path d="M334.742 303.276C336.164 303.276 337.316 302.123 337.316 300.7C337.316 299.278 336.164 298.125 334.742 298.125C333.32 298.125 332.168 299.278 332.168 300.7C332.168 302.123 333.32 303.276 334.742 303.276Z" fill="#F0F0F0"/>
<path d="M102.705 62.4396C102.724 75.4411 99.6526 88.2609 93.7447 99.8417C92.9637 101.368 92.1362 102.868 91.2624 104.341C82.6109 118.956 69.6668 130.548 54.1927 137.54C45.4524 131.2 37.2844 124.105 29.7823 116.338C28.638 115.151 27.5058 113.938 26.3857 112.699C25.3203 111.512 24.2667 110.3 23.2377 109.065C9.84579 93.0589 -0.0469449 73.3465 2.91984 53.0347C5.88012 32.7772 21.6636 15.9112 40.4558 7.80821C51.3169 3.1269 63.0318 1.03155 74.8919 0.728745C84.1653 8.92077 91.4759 19.0962 96.2813 30.5002C96.8867 31.9355 97.4437 33.3889 97.9704 34.8605C101.112 43.7154 102.714 53.0435 102.705 62.4396Z" fill="#6C63FF"/>
<path d="M140.241 66.6789C140.241 79.2936 127.927 90.9938 105.562 99.6358C101.088 101.368 96.2994 102.936 91.2624 104.341C72.4096 109.598 49.9728 112.511 26.3857 112.699C25.3203 111.512 24.2667 110.3 23.2377 109.065C23.4919 109.071 23.7462 109.071 24.0004 109.071C49.6157 109.071 73.9172 105.825 93.7447 99.8417C97.4073 98.7334 100.919 97.5343 104.255 96.2444C124.815 88.3049 136.608 77.5252 136.608 66.6789C136.608 55.8325 124.815 45.0588 104.255 37.1133C102.221 36.3261 100.126 35.5751 97.9705 34.8605C97.4437 33.3889 96.8868 31.9354 96.2814 30.5002C99.5021 31.5055 102.596 32.5794 105.562 33.722C127.927 42.3639 140.241 54.0702 140.241 66.6789Z" fill="#E4E4E4"/>
<path d="M27.7952 21.6701C29.2169 21.6701 30.3694 20.5173 30.3694 19.0951C30.3694 17.673 29.2169 16.5201 27.7952 16.5201C26.3735 16.5201 25.221 17.673 25.221 19.0951C25.221 20.5173 26.3735 21.6701 27.7952 21.6701Z" fill="#F0F0F0"/>
<path d="M81.6774 38.0214C83.0991 38.0214 84.2516 36.8685 84.2516 35.4464C84.2516 34.0243 83.0991 32.8714 81.6774 32.8714C80.2557 32.8714 79.1032 34.0243 79.1032 35.4464C79.1032 36.8685 80.2557 38.0214 81.6774 38.0214Z" fill="#F0F0F0"/>
<path d="M53.8282 86.5281C67.6535 86.5281 78.8612 75.3169 78.8612 61.4873C78.8612 47.6577 67.6535 36.4466 53.8282 36.4466C40.0028 36.4466 28.7951 47.6577 28.7951 61.4873C28.7951 75.3169 40.0028 86.5281 53.8282 86.5281Z" fill="#F0F0F0"/>
<path opacity="0.3" d="M516.127 194.019C510.508 195.678 498.121 196.902 484.499 197.653C470.884 198.397 455.948 198.724 441.2 199.039C415.385 199.597 389.572 200.156 363.761 200.717C360.213 200.796 356.653 200.868 353.082 200.935C351.295 199.754 349.51 198.555 347.742 197.332C350.908 197.35 354.074 197.332 357.217 197.271C370.639 197.005 382.002 195.957 394.946 195.46C414.864 194.691 436.369 195.297 457.129 195.606C477.888 195.921 501.542 195.805 516.127 194.019Z" fill="#F0F0F0"/>
<path opacity="0.3" d="M119.923 384.924L37.6344 316.351L117.577 387.67C117.732 387.931 117.946 388.151 118.203 388.312C118.46 388.474 118.752 388.571 119.054 388.597C119.356 388.623 119.66 388.577 119.941 388.462C120.221 388.347 120.47 388.166 120.667 387.936C120.864 387.705 121.004 387.431 121.073 387.136C121.143 386.841 121.142 386.533 121.069 386.239C120.996 385.944 120.854 385.671 120.655 385.442C120.456 385.214 120.205 385.036 119.923 384.924H119.923Z" fill="#F0F0F0"/>
<path d="M57.4607 125.228C58.8824 125.228 60.0349 124.075 60.0349 122.653C60.0349 121.231 58.8824 120.078 57.4607 120.078C56.039 120.078 54.8864 121.231 54.8864 122.653C54.8864 124.075 56.039 125.228 57.4607 125.228Z" fill="#F0F0F0"/>
<path d="M273.659 421.022L284.307 421.021L289.372 379.939L273.657 379.939L273.659 421.022Z" fill="#FFB6B6"/>
<path d="M270.943 417.544L273.94 417.544L285.641 412.784L291.912 417.543H291.913C295.457 417.543 298.856 418.952 301.362 421.459C303.868 423.965 305.276 427.365 305.276 430.91V431.345L270.944 431.346L270.943 417.544Z" fill="#2F2E41"/>
<path d="M193.92 421.022L183.273 421.021L178.207 379.939L193.922 379.939L193.92 421.022Z" fill="#FFB6B6"/>
<path d="M196.636 431.346L162.303 431.345V430.91C162.304 427.365 163.712 423.965 166.218 421.459C168.724 418.952 172.123 417.543 175.667 417.543H175.667L181.939 412.784L193.639 417.544L196.637 417.544L196.636 431.346Z" fill="#2F2E41"/>
<path d="M232.072 106.177L221.291 114.389L192.652 121.976C192.652 121.976 202.914 194.019 198.07 198.864C193.227 203.709 197.595 203.839 196.622 210.133C195.649 216.426 191.77 233.043 191.77 233.043H277.248C277.248 233.043 277.937 222.716 273.723 220.48C269.51 218.243 277.607 207.805 274.164 206.059C270.72 204.314 275.564 189.174 275.564 189.174L286.06 139.606L258.142 117.756L253.896 107.523L232.072 106.177Z" fill="#6C63FF"/>
<path d="M245.524 170.554C247.585 170.554 249.255 168.883 249.255 166.823C249.255 164.762 247.585 163.091 245.524 163.091C243.464 163.091 241.794 164.762 241.794 166.823C241.794 168.883 243.464 170.554 245.524 170.554Z" fill="#F2F2F2"/>
<path d="M191.77 233.043L188.245 323.835C188.245 323.835 173.026 390.894 175.67 392.657C178.313 394.42 179.433 404.932 179.433 404.932L194.414 406.695C194.414 406.695 194.414 399.643 197.939 396.998C201.464 394.354 234.069 270.065 234.069 270.065L265.877 390.234C265.877 390.234 266.673 396.998 269.317 396.998C271.961 396.998 272.842 406.695 272.842 406.695H287.822V396.998C287.822 396.998 294.554 394.864 291.91 387.812C289.266 380.76 277.248 233.043 277.248 233.043H191.77Z" fill="#2F2E41"/>
<path d="M243.267 100.767C253.244 100.767 261.332 92.6764 261.332 82.6965C261.332 72.7165 253.244 64.6261 243.267 64.6261C233.29 64.6261 225.203 72.7165 225.203 82.6965C225.203 92.6764 233.29 100.767 243.267 100.767Z" fill="#FFB6B6"/>
<path opacity="0.1" d="M274.164 163.846L277.688 166.491L279.451 154.15L274.164 163.846Z" fill="black"/>
<path d="M194.341 121.906C194.341 121.906 189.935 121.025 187.291 128.958C184.648 136.891 174.954 166.862 174.954 172.151C174.954 177.439 235.321 200.775 235.321 200.775L229.039 178.734L201.391 164.217L194.341 121.906Z" fill="#6C63FF"/>
<path d="M238.121 197.508C243.805 197.508 248.413 192.898 248.413 187.212C248.413 181.526 243.805 176.917 238.121 176.917C232.437 176.917 227.829 181.526 227.829 187.212C227.829 192.898 232.437 197.508 238.121 197.508Z" fill="#FFB6B6"/>
<path opacity="0.1" d="M200.585 153.299L201.391 164.217L226.958 177.641L204.217 162.383L200.585 153.299Z" fill="black"/>
<path d="M262.049 154.855H261.717V145.766C261.717 145.075 261.581 144.391 261.317 143.753C261.052 143.115 260.665 142.535 260.177 142.046C259.688 141.558 259.109 141.17 258.471 140.906C257.833 140.642 257.149 140.506 256.458 140.506H237.208C236.517 140.506 235.833 140.642 235.195 140.906C234.557 141.17 233.977 141.558 233.489 142.046C233.001 142.535 232.613 143.115 232.349 143.753C232.085 144.391 231.949 145.075 231.949 145.766V195.629C231.949 196.32 232.085 197.004 232.349 197.643C232.613 198.281 233.001 198.861 233.489 199.349C233.977 199.838 234.557 200.225 235.195 200.489C235.833 200.754 236.517 200.89 237.208 200.89H256.458C257.149 200.89 257.833 200.754 258.471 200.489C259.109 200.225 259.688 199.838 260.177 199.349C260.665 198.861 261.052 198.281 261.317 197.643C261.581 197.004 261.717 196.32 261.717 195.629V161.325H262.049V154.855Z" fill="#F0F0F0"/>
<path d="M286.06 139.606C286.06 139.606 288.704 141.369 290.466 149.302C292.228 157.235 303.684 187.206 299.278 194.258C294.872 201.31 293.571 208.836 278.591 198.258L257.861 179.273L272.842 165.169L279.01 169.576L286.06 139.606Z" fill="#6C63FF"/>
<path d="M247.068 162.73C249.501 162.73 251.474 160.757 251.474 158.322C251.474 155.888 249.501 153.915 247.068 153.915C244.635 153.915 242.662 155.888 242.662 158.322C242.662 160.757 244.635 162.73 247.068 162.73Z" fill="#6C63FF"/>
<path d="M259.823 178.273C265.507 178.273 270.115 173.664 270.115 167.978C270.115 162.292 265.507 157.683 259.823 157.683C254.139 157.683 249.531 162.292 249.531 167.978C249.531 173.664 254.139 178.273 259.823 178.273Z" fill="#FFB6B6"/>
<path opacity="0.1" d="M200.099 186.251L229.645 199.324L199.278 193.388L200.099 186.251Z" fill="black"/>
<path d="M225.042 86.2977L222.562 76.8552C221.915 74.3914 221.262 71.8779 221.407 69.3346C221.553 66.7914 222.631 64.167 224.773 62.7892C226.915 61.4114 230.185 61.7369 231.563 63.8789C231.825 60.4586 234.936 57.8278 238.236 56.8958C241.536 55.9637 245.04 56.3323 248.466 56.4896C251.891 56.6468 255.507 56.537 258.464 54.7991C258.689 55.4753 258.674 56.2086 258.422 56.8752C258.169 57.5417 257.695 58.1007 257.078 58.4578C257.813 58.6584 258.597 58.5722 259.271 58.2167C259.944 57.8612 260.458 57.2629 260.708 56.5428C260.73 58.5237 259.998 60.4388 258.661 61.8996C259.937 61.2664 261.402 61.1307 262.773 61.5189C264.143 61.907 265.32 62.7913 266.075 63.9996C267.584 66.6162 266.738 69.9024 265.855 72.7912L261.325 87.6178C260.637 85.3639 260.508 82.9843 260.14 80.6568C259.773 78.3294 259.119 75.9525 257.583 74.1659C256.047 72.3793 253.438 71.3447 251.255 72.2318C250.031 72.7295 249.097 73.7392 247.992 74.4638C245.724 75.9507 242.839 76.1639 240.144 75.8614C237.449 75.5588 234.823 74.7912 232.128 74.4846C230.441 74.2926 228.559 74.3434 227.286 75.4675C226.41 76.3774 225.832 77.5321 225.628 78.7784C225.027 81.2626 224.791 83.821 224.927 86.3731" fill="#2F2E41"/>
</g>
<defs>
<clipPath id="clip0">
<rect width="561" height="476" fill="white" transform="translate(0 0.688599)"/>
</clipPath>
</defs>
</svg>
